<svg width="745" height="696" viewBox="0 0 745 696" fill="none" xmlns="http://www.w3.org/2000/svg">
<path d="M373 45.9L383.2 71.4L409.975 72.675L389.575 90.525L395.95 116.025L373 102L350.05 116.025L356.425 90.525L336.025 72.675L362.8 71.4L373 45.9ZM475 76.5L483.925 99.45L508.15 100.725L490.3 116.025L495.4 140.25L475 127.5L454.6 140.25L459.7 116.025L441.85 100.725L466.075 99.45L475 76.5ZM271 76.5L279.925 99.45L304.15 100.725L286.3 116.025L291.4 140.25L271 127.5L250.6 140.25L255.7 116.025L237.85 100.725L262.075 99.45L271 76.5Z" fill="#2E7D32"/>
<path d="M602.5 522.75H143.5V216.75L373 140.25L602.5 216.75V522.75Z" fill="#4CAF50"/>
<path d="M462.25 280.5H538.75V344.25H462.25V280.5ZM334.75 280.5H411.25V344.25H334.75V280.5ZM207.25 280.5H283.75V344.25H207.25V280.5ZM462.25 382.5H538.75V446.25H462.25V382.5ZM207.25 382.5H283.75V446.25H207.25V382.5ZM322 382.5H424V548.25H322V382.5ZM373 114.75L143.5 191.25V216.75L373 140.25L602.5 216.75V191.25L373 114.75Z" fill="#94CF96"/>
<path d="M143.5 522.75H602.5V548.25H143.5V522.75Z" fill="#94CF96"/>
<rect y="561" width="745" height="135" rx="20" fill="#4CAF50"/>
<path d="M102.9 595V665H95.6V632.7H51.8V665H44.4V595H51.8V626.2H95.6V595H102.9ZM145.748 665.5C140.681 665.5 136.114 664.367 132.048 662.1C127.981 659.767 124.781 656.567 122.448 652.5C120.114 648.433 118.948 643.833 118.948 638.7C118.948 633.567 120.114 628.967 122.448 624.9C124.781 620.833 127.981 617.667 132.048 615.4C136.114 613.133 140.681 612 145.748 612C150.814 612 155.381 613.133 159.448 615.4C163.514 617.667 166.681 620.833 168.948 624.9C171.281 628.967 172.448 633.567 172.448 638.7C172.448 643.833 171.281 648.433 168.948 652.5C166.681 656.567 163.514 659.767 159.448 662.1C155.381 664.367 150.814 665.5 145.748 665.5ZM145.748 659.2C149.481 659.2 152.814 658.367 155.748 656.7C158.748 654.967 161.081 652.533 162.748 649.4C164.414 646.267 165.248 642.7 165.248 638.7C165.248 634.7 164.414 631.133 162.748 628C161.081 624.867 158.748 622.467 155.748 620.8C152.814 619.067 149.481 618.2 145.748 618.2C142.014 618.2 138.648 619.067 135.648 620.8C132.714 622.467 130.381 624.867 128.648 628C126.981 631.133 126.148 634.7 126.148 638.7C126.148 642.7 126.981 646.267 128.648 649.4C130.381 652.533 132.714 654.967 135.648 656.7C138.648 658.367 142.014 659.2 145.748 659.2ZM214.643 661.8C213.31 663 211.643 663.933 209.643 664.6C207.71 665.2 205.676 665.5 203.543 665.5C198.61 665.5 194.81 664.167 192.143 661.5C189.476 658.833 188.143 655.067 188.143 650.2V618.4H178.743V612.4H188.143V600.9H195.243V612.4H211.243V618.4H195.243V649.8C195.243 652.933 196.01 655.333 197.543 657C199.143 658.6 201.41 659.4 204.343 659.4C205.81 659.4 207.21 659.167 208.543 658.7C209.943 658.233 211.143 657.567 212.143 656.7L214.643 661.8ZM271.513 640.9H227.513C227.913 646.367 230.013 650.8 233.813 654.2C237.613 657.533 242.413 659.2 248.213 659.2C251.479 659.2 254.479 658.633 257.213 657.5C259.946 656.3 262.313 654.567 264.313 652.3L268.313 656.9C265.979 659.7 263.046 661.833 259.513 663.3C256.046 664.767 252.213 665.5 248.013 665.5C242.613 665.5 237.813 664.367 233.613 662.1C229.479 659.767 226.246 656.567 223.913 652.5C221.579 648.433 220.413 643.833 220.413 638.7C220.413 633.567 221.513 628.967 223.713 624.9C225.979 620.833 229.046 617.667 232.913 615.4C236.846 613.133 241.246 612 246.113 612C250.979 612 255.346 613.133 259.213 615.4C263.079 617.667 266.113 620.833 268.313 624.9C270.513 628.9 271.613 633.5 271.613 638.7L271.513 640.9ZM246.113 618.1C241.046 618.1 236.779 619.733 233.313 623C229.913 626.2 227.979 630.4 227.513 635.6H264.813C264.346 630.4 262.379 626.2 258.913 623C255.513 619.733 251.246 618.1 246.113 618.1ZM286.064 590.8H293.164V665H286.064V590.8ZM481.409 595L450.409 665H443.109L412.109 595H420.109L446.909 655.8L473.909 595H481.409ZM504.464 612C511.331 612 516.597 613.733 520.264 617.2C523.931 620.6 525.764 625.667 525.764 632.4V665H518.964V656.8C517.364 659.533 514.997 661.667 511.864 663.2C508.797 664.733 505.131 665.5 500.864 665.5C494.997 665.5 490.331 664.1 486.864 661.3C483.397 658.5 481.664 654.8 481.664 650.2C481.664 645.733 483.264 642.133 486.464 639.4C489.731 636.667 494.897 635.3 501.964 635.3H518.664V632.1C518.664 627.567 517.397 624.133 514.864 621.8C512.331 619.4 508.631 618.2 503.764 618.2C500.431 618.2 497.231 618.767 494.164 619.9C491.097 620.967 488.464 622.467 486.264 624.4L483.064 619.1C485.731 616.833 488.931 615.1 492.664 613.9C496.397 612.633 500.331 612 504.464 612ZM501.964 659.9C505.964 659.9 509.397 659 512.264 657.2C515.131 655.333 517.264 652.667 518.664 649.2V640.6H502.164C493.164 640.6 488.664 643.733 488.664 650C488.664 653.067 489.831 655.5 492.164 657.3C494.497 659.033 497.764 659.9 501.964 659.9ZM593.944 612.4V658.6C593.944 667.533 591.744 674.133 587.344 678.4C583.01 682.733 576.444 684.9 567.644 684.9C562.777 684.9 558.144 684.167 553.744 682.7C549.41 681.3 545.877 679.333 543.144 676.8L546.744 671.4C549.277 673.667 552.344 675.433 555.944 676.7C559.61 677.967 563.444 678.6 567.444 678.6C574.11 678.6 579.01 677.033 582.144 673.9C585.277 670.833 586.844 666.033 586.844 659.5V652.8C584.644 656.133 581.744 658.667 578.144 660.4C574.61 662.133 570.677 663 566.344 663C561.41 663 556.91 661.933 552.844 659.8C548.844 657.6 545.677 654.567 543.344 650.7C541.077 646.767 539.944 642.333 539.944 637.4C539.944 632.467 541.077 628.067 543.344 624.2C545.677 620.333 548.844 617.333 552.844 615.2C556.844 613.067 561.344 612 566.344 612C570.81 612 574.844 612.9 578.444 614.7C582.044 616.5 584.944 619.1 587.144 622.5V612.4H593.944ZM567.044 656.7C570.844 656.7 574.277 655.9 577.344 654.3C580.41 652.633 582.777 650.333 584.444 647.4C586.177 644.467 587.044 641.133 587.044 637.4C587.044 633.667 586.177 630.367 584.444 627.5C582.777 624.567 580.41 622.3 577.344 620.7C574.344 619.033 570.91 618.2 567.044 618.2C563.244 618.2 559.81 619 556.744 620.6C553.744 622.2 551.377 624.467 549.644 627.4C547.977 630.333 547.144 633.667 547.144 637.4C547.144 641.133 547.977 644.467 549.644 647.4C551.377 650.333 553.744 652.633 556.744 654.3C559.81 655.9 563.244 656.7 567.044 656.7ZM632.198 612C639.065 612 644.332 613.733 647.998 617.2C651.665 620.6 653.498 625.667 653.498 632.4V665H646.698V656.8C645.098 659.533 642.732 661.667 639.598 663.2C636.532 664.733 632.865 665.5 628.598 665.5C622.732 665.5 618.065 664.1 614.598 661.3C611.132 658.5 609.398 654.8 609.398 650.2C609.398 645.733 610.998 642.133 614.198 639.4C617.465 636.667 622.632 635.3 629.698 635.3H646.398V632.1C646.398 627.567 645.132 624.133 642.598 621.8C640.065 619.4 636.365 618.2 631.498 618.2C628.165 618.2 624.965 618.767 621.898 619.9C618.832 620.967 616.198 622.467 613.998 624.4L610.798 619.1C613.465 616.833 616.665 615.1 620.398 613.9C624.132 612.633 628.065 612 632.198 612ZM629.698 659.9C633.698 659.9 637.132 659 639.998 657.2C642.865 655.333 644.998 652.667 646.398 649.2V640.6H629.898C620.898 640.6 616.398 643.733 616.398 650C616.398 653.067 617.565 655.5 619.898 657.3C622.232 659.033 625.498 659.9 629.698 659.9ZM686.883 665.5C682.616 665.5 678.516 664.9 674.583 663.7C670.716 662.433 667.683 660.867 665.483 659L668.683 653.4C670.883 655.133 673.649 656.567 676.983 657.7C680.316 658.767 683.783 659.3 687.383 659.3C692.183 659.3 695.716 658.567 697.983 657.1C700.316 655.567 701.483 653.433 701.483 650.7C701.483 648.767 700.849 647.267 699.583 646.2C698.316 645.067 696.716 644.233 694.783 643.7C692.849 643.1 690.283 642.533 687.083 642C682.816 641.2 679.383 640.4 676.783 639.6C674.183 638.733 671.949 637.3 670.083 635.3C668.283 633.3 667.383 630.533 667.383 627C667.383 622.6 669.216 619 672.883 616.2C676.549 613.4 681.649 612 688.183 612C691.583 612 694.983 612.467 698.383 613.4C701.783 614.267 704.583 615.433 706.783 616.9L703.683 622.6C699.349 619.6 694.183 618.1 688.183 618.1C683.649 618.1 680.216 618.9 677.883 620.5C675.616 622.1 674.483 624.2 674.483 626.8C674.483 628.8 675.116 630.4 676.383 631.6C677.716 632.8 679.349 633.7 681.283 634.3C683.216 634.833 685.883 635.4 689.283 636C693.483 636.8 696.849 637.6 699.383 638.4C701.916 639.2 704.083 640.567 705.883 642.5C707.683 644.433 708.583 647.1 708.583 650.5C708.583 655.1 706.649 658.767 702.783 661.5C698.983 664.167 693.683 665.5 686.883 665.5Z" fill="white"/>
<path d="M358.191 625C365.525 625.4 371.091 627.4 374.891 631C378.758 634.533 380.691 639.167 380.691 644.9C380.691 648.9 379.725 652.467 377.791 655.6C375.858 658.667 372.991 661.1 369.191 662.9C365.391 664.7 360.758 665.6 355.291 665.6C350.225 665.6 345.425 664.8 340.891 663.2C336.425 661.533 332.825 659.333 330.091 656.6L333.591 650.9C335.925 653.3 339.025 655.267 342.891 656.8C346.758 658.267 350.891 659 355.291 659C361.025 659 365.458 657.767 368.591 655.3C371.725 652.767 373.291 649.3 373.291 644.9C373.291 640.567 371.725 637.167 368.591 634.7C365.458 632.233 360.725 631 354.391 631H349.391V625.7L368.791 601.4H332.991V595H377.991V600.1L358.191 625Z" fill="#384E39"/>
</svg>
